2.mot
version=1
nRows=32
nColumns=37
inDegrees=yes
endheader
time	ground_force_vx	ground_force_vy	ground_force_vz	ground_force_px	ground_force_py	ground_force_pz	1_ground_force_vx	1_ground_force_vy	1_ground_force_vz	1_ground_force_px	1_ground_force_py	1_ground_force_pz	2_ground_force_vx	2_ground_force_vy	2_ground_force_vz	2_ground_force_px	2_ground_force_py	2_ground_force_pz	3_ground_force_vx	3_ground_force_vy	3_ground_force_vz	3_ground_force_px	3_ground_force_py	3_ground_force_pz	ground_torque_x	ground_torque_y	ground_torque_z	1_ground_torque_x	1_ground_torque_y	1_ground_torque_z	2_ground_torque_x	2_ground_torque_y	2_ground_torque_z	3_ground_torque_x	3_ground_torque_y	3_ground_torque_z
7.632653	0.865644	-0.966989	-0.740036	0.000000	0.000000	0.000000	0.282371	-5.721828	0.357250	0.000000	0.000000	0.000000	6.213699	37.758998	10.082991	0.931236	0.000000	-0.173139	2.438868	616.367982	-3.759197	1.064661	0.000000	-0.514478	0.000000	0.000000	0.000000	0.000000	0.000000	0.000000	0.000000	1.119586	0.000000	0.000000	0.274374	0.000000
7.639456	1.020641	0.432067	-0.929604	0.000000	0.000000	0.000000	0.219954	-8.452354	0.446726	0.000000	0.000000	0.000000	5.923219	37.567381	9.999430	0.931065	0.000000	-0.173503	3.596048	609.187119	-2.961787	1.064462	0.000000	-0.514297	0.000000	0.000000	0.000000	0.000000	0.000000	0.000000	0.000000	1.040232	0.000000	0.000000	0.257747	0.000000
7.646259	0.974578	1.394887	-0.952971	0.000000	0.000000	0.000000	0.219516	-9.161075	0.520076	0.000000	0.000000	0.000000	5.836083	37.038521	9.974191	0.930884	0.000000	-0.173783	6.558172	602.600035	-1.079592	1.064205	0.000000	-0.513941	0.000000	0.000000	0.000000	0.000000	0.000000	0.000000	0.000000	1.048148	0.000000	0.000000	0.245511	0.000000
7.653061	0.792715	1.103812	-0.840652	0.000000	0.000000	0.000000	0.272372	-8.021495	0.627865	0.000000	0.000000	0.000000	6.091639	36.390875	9.966213	0.930687	0.000000	-0.173974	9.666621	596.513108	0.596004	1.063876	0.000000	-0.513417	0.000000	0.000000	0.000000	0.000000	0.000000	0.000000	0.000000	1.115212	0.000000	0.000000	0.337694	0.000000
7.659864	0.698421	0.657792	-0.848601	0.000000	0.000000	0.000000	0.353349	-6.517974	0.745962	0.000000	0.000000	0.000000	6.052496	36.935765	9.954436	0.930471	0.000000	-0.174074	10.317498	592.724247	1.768481	1.063464	0.000000	-0.512740	0.000000	0.000000	0.000000	0.000000	0.000000	0.000000	0.000000	1.120400	0.000000	0.000000	0.429688	0.000000
7.666667	0.746269	-0.063190	-0.786827	0.000000	0.000000	0.000000	0.415527	-6.614399	0.669274	0.000000	0.000000	0.000000	5.807357	37.545219	10.073663	0.930237	0.000000	-0.174084	8.954105	592.160694	3.224075	1.062957	0.000000	-0.511929	0.000000	0.000000	0.000000	0.000000	0.000000	0.000000	0.000000	1.090398	0.000000	0.000000	0.435434	0.000000
7.673469	0.916811	-0.547013	-0.858176	0.000000	0.000000	0.000000	0.467010	-7.847292	0.342179	0.000000	0.000000	0.000000	5.700128	37.160715	10.200214	0.929988	0.000000	-0.174008	8.141895	590.801450	5.360406	1.062347	0.000000	-0.511006	0.000000	0.000000	0.000000	0.000000	0.000000	0.000000	0.000000	1.057930	0.000000	0.000000	0.424916	0.000000
7.680272	1.041113	-0.157975	-1.044382	0.000000	0.000000	0.000000	0.483514	-7.930560	0.149011	0.000000	0.000000	0.000000	5.751262	36.509678	10.234284	0.929729	0.000000	-0.173852	8.600659	588.247075	7.999625	1.061629	0.000000	-0.509999	0.000000	0.000000	0.000000	0.000000	0.000000	0.000000	0.000000	1.057062	0.000000	0.000000	0.378790	0.000000
7.687075	0.964780	0.277427	-0.961929	0.000000	0.000000	0.000000	0.290765	-7.137402	0.288794	0.000000	0.000000	0.000000	5.788477	37.024070	10.375422	0.929471	0.000000	-0.173624	8.772533	586.217543	9.943461	1.060802	0.000000	-0.508935	0.000000	0.000000	0.000000	0.000000	0.000000	0.000000	0.000000	1.095917	0.000000	0.000000	0.345483	0.000000
7.693878	0.813682	-0.264228	-0.848783	0.000000	0.000000	0.000000	0.217559	-6.607693	0.465937	0.000000	0.000000	0.000000	5.819124	37.867978	10.255808	0.929227	0.000000	-0.173333	7.949550	584.239100	10.076636	1.059873	0.000000	-0.507847	0.000000	0.000000	0.000000	0.000000	0.000000	0.000000	0.000000	1.107400	0.000000	0.000000	0.375537	0.000000
7.700680	0.724683	-0.076205	-0.871698	0.000000	0.000000	0.000000	0.399076	-7.205181	0.559470	0.000000	0.000000	0.000000	5.947151	36.531151	10.076770	0.929013	0.000000	-0.172989	6.776964	582.929789	9.062803	1.058851	0.000000	-0.506764	0.000000	0.000000	0.000000	0.000000	0.000000	0.000000	0.000000	1.087930	0.000000	0.000000	0.413050	0.000000
7.707483	0.858567	0.554257	-0.905562	0.000000	0.000000	0.000000	0.389821	-7.838774	0.477284	0.000000	0.000000	0.000000	5.956158	34.893345	10.344690	0.928847	0.000000	-0.172600	5.479198	581.485817	8.300765	1.057751	0.000000	-0.505719	0.000000	0.000000	0.000000	0.000000	0.000000	0.000000	0.000000	1.068856	0.000000	0.000000	0.399131	0.000000
7.714286	1.088946	0.036255	-1.048585	0.000000	0.000000	0.000000	0.295032	-7.407074	0.278505	0.000000	0.000000	0.000000	5.828732	35.653941	10.393768	0.928746	0.000000	-0.172175	3.934487	578.972315	7.824268	1.056594	0.000000	-0.504740	0.000000	0.000000	0.000000	0.000000	0.000000	0.000000	0.000000	1.095685	0.000000	0.000000	0.371320	0.000000
7.721088	1.055211	-0.576697	-0.831648	0.000000	0.000000	0.000000	0.448452	-6.812538	0.278707	0.000000	0.000000	0.000000	5.726253	36.974415	10.186709	0.928727	0.000000	-0.171722	2.473584	576.056577	7.736250	1.055401	0.000000	-0.503855	0.000000	0.000000	0.000000	0.000000	0.000000	0.000000	0.000000	1.125558	0.000000	0.000000	0.298110	0.000000
7.727891	0.956708	-0.350745	-0.408243	0.000000	0.000000	0.000000	0.627032	-6.618166	0.177829	0.000000	0.000000	0.000000	5.739304	36.776248	10.252724	0.928805	0.000000	-0.171249	1.032249	572.075985	8.540915	1.054200	0.000000	-0.503089	0.000000	0.000000	0.000000	0.000000	0.000000	0.000000	0.000000	1.162162	0.000000	0.000000	0.138774	0.000000
7.734694	1.112409	0.923110	-0.520889	0.000000	0.000000	0.000000	0.509065	-6.860000	-0.065654	0.000000	0.000000	0.000000	5.937103	36.241913	10.293943	0.928991	0.000000	-0.170763	-0.756282	570.030996	9.947784	1.053015	0.000000	-0.502464	0.000000	0.000000	0.000000	0.000000	0.000000	0.000000	0.000000	1.231380	0.000000	0.000000	-0.050934	0.000000
7.741497	0.995259	1.560183	-0.728255	0.000000	0.000000	0.000000	0.280378	-7.775461	-0.003221	0.000000	0.000000	0.000000	6.093563	36.918937	10.182796	0.929288	0.000000	-0.170270	-1.921356	572.389069	11.475919	1.051874	0.000000	-0.501996	0.000000	0.000000	0.000000	0.000000	0.000000	0.000000	0.000000	1.250015	0.000000	0.000000	-0.116499	0.000000
7.748299	0.670601	0.427695	-0.666999	0.000000	0.000000	0.000000	0.380132	-8.194488	0.287189	0.000000	0.000000	0.000000	6.029619	37.048504	10.364155	0.929695	0.000000	-0.169778	-2.336919	576.153357	12.945553	1.050798	0.000000	-0.501698	0.000000	0.000000	0.000000	0.000000	0.000000	0.000000	0.000000	1.214366	0.000000	0.000000	-0.024566	0.000000
7.755102	0.846250	-0.800848	-0.641361	0.000000	0.000000	0.000000	0.584210	-7.221439	0.509395	0.000000	0.000000	0.000000	5.755861	36.741312	10.559504	0.930201	0.000000	-0.169294	-3.267939	580.814195	15.312481	1.049809	0.000000	-0.501576	0.000000	0.000000	0.000000	0.000000	0.000000	0.000000	0.000000	1.161079	0.000000	0.000000	-0.022485	0.000000
7.761905	1.259322	-0.649423	-0.757432	0.000000	0.000000	0.000000	0.456150	-6.707511	0.649741	0.000000	0.000000	0.000000	5.648617	36.612734	10.750899	0.930790	0.000000	-0.168825	-3.965655	589.664220	19.382117	1.048921	0.000000	-0.501632	0.000000	0.000000	0.000000	0.000000	0.000000	0.000000	0.000000	1.142470	0.000000	0.000000	-0.169160	0.000000
7.768707	1.237620	0.283771	-0.792988	0.000000	0.000000	0.000000	0.354842	-7.168646	0.455200	0.000000	0.000000	0.000000	5.940143	35.739944	10.998717	0.931440	0.000000	-0.168382	-3.381331	601.331893	23.681357	1.048145	0.000000	-0.501861	0.000000	0.000000	0.000000	0.000000	0.000000	0.000000	0.000000	1.158345	0.000000	0.000000	-0.370754	0.000000
7.775510	1.058626	0.984561	-0.679004	0.000000	0.000000	0.000000	0.482617	-7.592749	0.016323	0.000000	0.000000	0.000000	6.171281	35.751651	10.969420	0.932123	0.000000	-0.167973	-2.767123	613.326595	26.263206	1.047485	0.000000	-0.502253	0.000000	0.000000	0.000000	0.000000	0.000000	0.000000	0.000000	1.152295	0.000000	0.000000	-0.506715	0.000000
7.782313	1.103809	0.284060	-0.529377	0.000000	0.000000	0.000000	0.550136	-7.770030	-0.002880	0.000000	0.000000	0.000000	6.054489	35.523866	11.105885	0.932809	0.000000	-0.167609	-3.678806	626.829143	26.570220	1.046940	0.000000	-0.502790	0.000000	0.000000	0.000000	0.000000	0.000000	0.000000	0.000000	1.119819	0.000000	0.000000	-0.449764	0.000000
7.789116	1.056184	-1.455604	-0.333262	0.000000	0.000000	0.000000	0.424413	-6.899143	0.235756	0.000000	0.000000	0.000000	5.973962	34.731603	11.415815	0.933468	0.000000	-0.167298	-5.951088	639.811574	24.930742	1.046502	0.000000	-0.503451	0.000000	0.000000	0.000000	0.000000	0.000000	0.000000	0.000000	1.078906	0.000000	0.000000	-0.320714	0.000000
7.795918	0.782647	-1.578880	-0.404803	0.000000	0.000000	0.000000	0.317301	-5.761343	0.195305	0.000000	0.000000	0.000000	5.992860	36.202193	11.523713	0.934070	0.000000	-0.167049	-7.381045	651.105154	22.795291	1.046158	0.000000	-0.504209	0.000000	0.000000	0.000000	0.000000	0.000000	0.000000	0.000000	1.116659	0.000000	0.000000	-0.278443	0.000000
7.802721	0.853012	-0.436537	-0.846507	0.000000	0.000000	0.000000	0.479322	-5.712158	0.250706	0.000000	0.000000	0.000000	6.021158	38.012539	11.577873	0.934590	0.000000	-0.166868	-6.690084	663.805771	20.491414	1.045892	0.000000	-0.505035	0.000000	0.000000	0.000000	0.000000	0.000000	0.000000	0.000000	1.172938	0.000000	0.000000	-0.229472	0.000000
7.809524	0.989708	-0.395446	-1.090210	0.000000	0.000000	0.000000	0.469360	-5.769442	0.390026	0.000000	0.000000	0.000000	5.996763	37.311726	11.498298	0.935008	0.000000	-0.166759	-5.358213	677.654269	16.800122	1.045682	0.000000	-0.505897	0.000000	0.000000	0.000000	0.000000	0.000000	0.000000	0.000000	1.161323	0.000000	0.000000	-0.078380	0.000000
7.816327	0.930421	-0.515387	-0.807314	0.000000	0.000000	0.000000	0.323021	-5.533416	0.327031	0.000000	0.000000	0.000000	6.082731	37.493262	11.561032	0.935307	0.000000	-0.166725	-4.506552	689.876403	12.030274	1.045506	0.000000	-0.506760	0.000000	0.000000	0.000000	0.000000	0.000000	0.000000	0.000000	1.191622	0.000000	0.000000	0.103666	0.000000
7.823129	1.068636	-1.018254	-0.683794	0.000000	0.000000	0.000000	0.535154	-6.377140	0.277768	0.000000	0.000000	0.000000	6.169163	37.467236	11.986232	0.935480	0.000000	-0.166763	-3.863698	697.870906	7.646720	1.045339	0.000000	-0.507594	0.000000	0.000000	0.000000	0.000000	0.000000	0.000000	0.000000	1.234722	0.000000	0.000000	0.233130	0.000000
7.829932	1.154325	-1.014318	-0.862104	0.000000	0.000000	0.000000	0.714331	-7.253236	0.369619	0.000000	0.000000	0.000000	6.011162	35.805419	11.780505	0.935523	0.000000	-0.166872	-2.961724	700.197635	4.701340	1.045159	0.000000	-0.508366	0.000000	0.000000	0.000000	0.000000	0.000000	0.000000	0.000000	1.220403	0.000000	0.000000	0.277749	0.000000
7.836735	1.091117	0.458251	-0.737152	0.000000	0.000000	0.000000	0.530587	-7.588829	0.433013	0.000000	0.000000	0.000000	5.914145	35.837479	11.125320	0.935441	0.000000	-0.167043	-1.637665	698.694148	3.331905	1.044941	0.000000	-0.509050	0.000000	0.000000	0.000000	0.000000	0.000000	0.000000	0.000000	1.166219	0.000000	0.000000	0.236690	0.000000
7.843537	0.940468	0.953637	-0.618253	0.000000	0.000000	0.000000	0.268393	-8.165797	0.326947	0.000000	0.000000	0.000000	5.954494	36.780255	11.361891	0.935244	0.000000	-0.167269	-0.061206	696.086363	3.096424	1.044667	0.000000	-0.509622	0.000000	0.000000	0.000000	0.000000	0.000000	0.000000	0.000000	1.111979	0.000000	0.000000	0.096939	0.000000
